<svg t="1745258081956" class="icon" viewBox="0 0 1024 1024" version="1.1" xmlns="http://www.w3.org/2000/svg"
     p-id="10734" width="90" height="90">
    <path d="M824.02304 816.7424c53.62688 0 97.4336-44.41088 97.4336-98.77504 0-65.64864-97.4336-172.76928-97.4336-172.76928s-97.4336 107.12064-97.4336 172.76928c0.01024 54.36416 43.80672 98.77504 97.4336 98.77504z m-462.72512-54.10816c8.71424 8.71424 22.82496 8.71424 31.41632 0L706.9696 448.50176c8.71424-8.71424 8.71424-22.82496 0-31.41632L392.82688 102.95296c-0.72704-0.73728-1.59744-1.47456-2.44736-2.08896L294.41024 4.9152c-4.29056-4.3008-11.40736-4.3008-15.70816 0l-58.90048 58.90048c-4.3008 4.3008-4.3008 11.4176 0 15.70816l82.45248 82.46272L47.28832 417.08544c-8.71424 8.71424-8.71424 22.82496 0 31.41632l314.0096 314.13248z m15.8208-550.47168l219.52512 219.52512H157.72672l219.392-219.52512zM992.8704 904.72448H30.84288c-5.39648 0-9.80992 4.42368-9.80992"
          fill="#333333" p-id="10735"></path>
</svg>
