<svg t="1759985863978" class="icon" viewBox="0 0 1024 1024" version="1.1" xmlns="http://www.w3.org/2000/svg" p-id="3527" width="90" height="90"><path d="M822.992 156.064H738.88V125.408C738.88 109.168 725.76 96 709.568 96a29.36 29.36 0 0 0-29.312 29.408v30.656H343.744V125.408c0-16.24-13.12-29.408-29.312-29.408a29.36 29.36 0 0 0-29.312 29.408v30.656h-84.112C151.936 156.064 112 196.112 112 245.344V822.72C112 871.952 151.936 912 201.008 912h621.984C872.064 912 912 871.952 912 822.72V245.344c0-49.232-39.936-89.28-89.008-89.28z m-621.984 58.8h84.112v4.624c0 16.24 13.12 29.408 29.312 29.408a29.36 29.36 0 0 0 29.312-29.408v-4.64h336.512v4.64c0 16.24 13.12 29.408 29.312 29.408a29.36 29.36 0 0 0 29.312-29.408v-4.64h84.112c16.752 0 30.4 13.68 30.4 30.496v57.856H170.608v-57.856c0-16.8 13.632-30.48 30.4-30.48h-0.016z m621.984 638.336H201.008c-16.752 0-30.4-13.68-30.4-30.48V362h682.768V822.72c0 16.8-13.632 30.48-30.4 30.48h0.016zM411.92 524.448c0 16.24-13.12 29.392-29.312 29.392H313.76a29.36 29.36 0 0 1-29.312-29.392c0-16.24 13.12-29.408 29.312-29.408h68.848c16.192 0 29.312 13.168 29.312 29.408z m163.824 0c0 16.24-13.12 29.392-29.312 29.392h-68.848a29.36 29.36 0 0 1-29.312-29.392c0-16.24 13.12-29.408 29.312-29.408h68.848c16.192 0 29.312 13.168 29.312 29.408zM411.92 693.68c0 16.24-13.12 29.408-29.312 29.408H313.76a29.36 29.36 0 0 1-29.312-29.408c0-16.24 13.12-29.392 29.312-29.392h68.848c16.192 0 29.312 13.152 29.312 29.392z m163.824 0c0 16.24-13.12 29.408-29.312 29.408h-68.848a29.36 29.36 0 0 1-29.312-29.408c0-16.24 13.12-29.392 29.312-29.392h68.848c16.192 0 29.312 13.152 29.312 29.392z m163.808-169.232c0 16.24-13.12 29.392-29.312 29.392h-68.848a29.36 29.36 0 0 1-29.312-29.392c0-16.24 13.12-29.408 29.312-29.408h68.848c16.192 0 29.312 13.168 29.312 29.408z" p-id="3528"></path></svg>
