<svg t="1759986439540" class="icon" viewBox="0 0 1024 1024" version="1.1" xmlns="http://www.w3.org/2000/svg" p-id="4592" width="90" height="90"><path d="M927.04 720.61c0-38.76-31.53-70.29-70.28-70.29H601.49l-2.04-152.98c41.07-43.47 111.96-143.99 111.96-230.9 0-109.91-89.41-199.32-199.31-199.32-109.91 0-199.32 89.41-199.32 199.32 0 88.72 77.32 199.74 100.96 231.6l0.27 152.28H167.44c-38.75 0-70.28 31.53-70.28 70.29v133.53h83.61v47.47c0 30.61 24.9 55.51 55.51 55.51h551.63c30.61 0 55.51-24.9 55.51-55.51v-47.47h83.61V720.61zM475.8 476.79l-6.63-8.42c-26.23-33.31-94.29-134.51-94.29-201.92 0-75.67 61.56-137.22 137.22-137.22s137.21 61.56 137.21 137.22c0 63.99-60.52 156.3-102.36 195.65l-9.95 9.37 2.39 178.86h-63.28l-0.31-173.54z m305.54 418.24H242.86v-40.89h538.47v40.89z m83.6-102.98H159.25v-71.44c0-4.52 3.67-8.2 8.19-8.2h689.32c4.52 0 8.19 3.68 8.19 8.2v71.44z" fill="#666666" p-id="4593"></path></svg>
