<svg t="1745740166956" class="icon" viewBox="0 0 1024 1024" version="1.1" xmlns="http://www.w3.org/2000/svg" p-id="2352" width="90" height="90"><path d="M725.333333 597.333333H298.666667a170.666667 170.666667 0 0 0-170.666667 170.666667v128h768v-128a170.666667 170.666667 0 0 0-170.666667-170.666667zM213.333333 810.666667v-42.666667c0-47.061333 38.272-85.333333 85.333334-85.333333h426.666666c47.061333 0 85.333333 38.272 85.333334 85.333333v42.666667H213.333333zM512 128a213.333333 213.333333 0 1 0 0.042667 426.709333A213.333333 213.333333 0 0 0 512 128z m0 341.333333c-70.570667 0-128-57.429333-128-128s57.429333-128 128-128 128 57.429333 128 128-57.429333 128-128 128z" fill="#231815" p-id="2353"></path></svg>
