<svg fill="currentColor" viewBox="0 0 48 48" id="Param" xmlns="http://www.w3.org/2000/svg"><path d="M28.5 41.438a.375.375 0 0 1-.375-.376v-2.624a.375.375 0 0 1 .375-.376h3.89v-28.03H28.5a.375.375 0 0 1-.375-.376V7.031a.375.375 0 0 1 .375-.375h11.156a.375.375 0 0 1 .375.375v2.625a.375.375 0 0 1-.375.375h-3.89v28.032h3.89a.375.375 0 0 1 .375.374v2.626a.375.375 0 0 1-.375.374H28.5Zm14.906-28.735a1.5 1.5 0 0 1 1.5 1.5v19.574a1.5 1.5 0 0 1-1.5 1.5h-4.378a.375.375 0 0 1-.375-.375v-2.32a.375.375 0 0 1 .375-.375h2.751V15.773h-2.826a.375.375 0 0 1-.375-.375v-2.32a.375.375 0 0 1 .375-.375h4.453Zm-14.964 0a.375.375 0 0 1 .375.375v2.32a.375.375 0 0 1-.375.375H6.072v16.434h22.475a.375.375 0 0 1 .375.375v2.32a.375.375 0 0 1-.375.375H4.453a1.5 1.5 0 0 1-1.5-1.5V14.203a1.5 1.5 0 0 1 1.5-1.5h23.989Z"></path></svg>
