<svg fill="currentColor" viewBox="0 0 48 48" id="Table" xmlns="http://www.w3.org/2000/svg">
    <path d="M43.5 7.5h-39C3.67 7.5 3 8.17 3 9v30c0 .83.67 1.5 1.5 1.5h39c.83 0 1.5-.67 1.5-1.5V9c0-.83-.67-1.5-1.5-1.5Zm-1.875 9.75h-9.938v-6.375h9.938v6.375Zm0 10.5h-9.938v-7.5h9.938v7.5Zm-22.313-7.5h9.375v7.5h-9.375v-7.5Zm9.375-3h-9.375v-6.375h9.375v6.375Zm-22.312 3h9.938v7.5H6.374v-7.5Zm0-9.375h9.938v6.375H6.374v-6.375Zm0 19.875h9.938v6.375H6.374V30.75Zm12.938 0h9.375v6.375h-9.375V30.75Zm22.312 6.375h-9.938V30.75h9.938v6.375Z"></path>
</svg>
