<svg xmlns="http://www.w3.org/2000/svg" width="120" height="120" viewBox="0 0 100 100">
  <path fill="none" d="M0 0h100v100H0z"/>
  <rect width="7" height="18" x="46.5" y="12" fill="#E9E9E9" rx="3" ry="3" transform="rotate(0 50 50)"/>
  <rect width="7" height="18" x="46.5" y="12" fill="#D4D4D4" rx="3" ry="3" transform="rotate(30 50 50)"/>
  <rect width="7" height="18" x="46.5" y="12" fill="#BEBEBE" rx="3" ry="3" transform="rotate(60 50 50)"/>
  <rect width="7" height="18" x="46.5" y="12" fill="#A8A8A8" rx="3" ry="3" transform="rotate(90 50 50)"/>
  <rect width="7" height="18" x="46.5" y="12" fill="#929292" rx="3" ry="3" transform="rotate(120 50 50)"/>
  <rect width="7" height="18" x="46.5" y="12" fill="#7C7C7C" rx="3" ry="3" transform="rotate(150 50 50)"/>
  <rect width="7" height="18" x="46.5" y="12" fill="#666666" rx="3" ry="3" transform="rotate(180 50 50)"/>
  <rect width="7" height="18" x="46.5" y="12" fill="#505050" rx="3" ry="3" transform="rotate(210 50 50)"/>
  <rect width="7" height="18" x="46.5" y="12" fill="#404040" rx="3" ry="3" transform="rotate(240 50 50)"/>
  <rect width="7" height="18" x="46.5" y="12" fill="#333333" rx="3" ry="3" transform="rotate(270 50 50)"/>
  <rect width="7" height="18" x="46.5" y="12" fill="#292929" rx="3" ry="3" transform="rotate(300 50 50)"/>
  <rect width="7" height="18" x="46.5" y="12" fill="#222222" rx="3" ry="3" transform="rotate(330 50 50)"/>
</svg>
